HIERARCHY
ROOT Hips
{
  OFFSET -331.093 83.8371 -317.828
  CHANNELS 6 Xposition Yposition Zposition Zrotation Xrotation Yrotation
  JOINT LeftUpLeg
  {
    OFFSET 8.64259 1.95398 -2.38835
    CHANNELS 3 Zrotation Xrotation Yrotation
    JOINT LeftLeg
    {
      OFFSET 43.7702 0 0
      CHANNELS 3 Zrotation Xrotation Yrotation
      JOINT LeftFoot
      {
        OFFSET 40.6238 0 0
        CHANNELS 3 Zrotation Xrotation Yrotation
        JOINT LeftToeBase
        {
          OFFSET 12.7242 0 0
          CHANNELS 3 Zrotation Xrotation Yrotation
          End Site
          {
            OFFSET 0 0 0
          }
        }
      }
    }
  }
  JOINT RightUpLeg
  {
    OFFSET -8.2249 1.95398 -2.59336
    CHANNELS 3 Zrotation Xrotation Yrotation
    JOINT RightLeg
    {
      OFFSET 43.5653 0 0
      CHANNELS 3 Zrotation Xrotation Yrotation
      JOINT RightFoot
      {
        OFFSET 40.6238 0 0
        CHANNELS 3 Zrotation Xrotation Yrotation
        JOINT RightToeBase
        {
          OFFSET 12.7242 0 0
          CHANNELS 3 Zrotation Xrotation Yrotation
          End Site
          {
            OFFSET 0 0 0
          }
        }
      }
    }
  }
  JOINT Spine
  {
    OFFSET 0.165834 0.87714 6.61349
    CHANNELS 3 Zrotation Xrotation Yrotation
    JOINT Spine1
    {
      OFFSET 7.38963 1.71661e-005 0
      CHANNELS 3 Zrotation Xrotation Yrotation
      JOINT Spine2
      {
        OFFSET 11.9445 1.14441e-005 0
        CHANNELS 3 Zrotation Xrotation Yrotation
        JOINT Spine3
        {
          OFFSET 14.7254 4.19617e-005 0
          CHANNELS 3 Zrotation Xrotation Yrotation
          JOINT Spine4
          {
            OFFSET 10.9679 0 0
            CHANNELS 3 Zrotation Xrotation Yrotation
            JOINT RightShoulder
            {
              OFFSET 2.46616 -1.6653 3.69651
              CHANNELS 3 Zrotation Xrotation Yrotation
              JOINT RightArm
              {
                OFFSET 13.0012 0 0
                CHANNELS 3 Zrotation Xrotation Yrotation
                JOINT RightForeArm
                {
                  OFFSET 28.7848 1.62311e-005 0
                  CHANNELS 3 Zrotation Xrotation Yrotation
                  JOINT RightHand
                  {
                    OFFSET 26.5688 1.62095e-005 0
                    CHANNELS 3 Zrotation Xrotation Yrotation
                    End Site
                    {
                      OFFSET 0 0 0
                    }
                  }
                }
              }
            }
            JOINT LeftShoulder
            {
              OFFSET 2.38034 -1.29275 -3.7523
              CHANNELS 3 Zrotation Xrotation Yrotation
              JOINT LeftArm
              {
                OFFSET 16.3182 6.07031e-005 0
                CHANNELS 3 Zrotation Xrotation Yrotation
                JOINT LeftForeArm
                {
                  OFFSET 27.0901 0 0
                  CHANNELS 3 Zrotation Xrotation Yrotation
                  JOINT LeftHand
                  {
                    OFFSET 24.5451 1.51738e-005 0
                    CHANNELS 3 Zrotation Xrotation Yrotation
                    End Site
                    {
                      OFFSET 0 0 0
                    }
                  }
                }
              }
            }
            JOINT Neck
            {
              OFFSET 5.0226 -0.0266342 0
              CHANNELS 3 Zrotation Xrotation Yrotation
              JOINT Head
              {
                OFFSET 6.69364 2.86102e-005 0
                CHANNELS 3 Zrotation Xrotation Yrotation
                End Site
                {
                  OFFSET 0 0 0
                }
              }
            }
          }
        }
      }
    }
  }
}
MOTION
Frames:	14
Frame Time:	0.0416667
-245.684 77.2698 -234.682 87.1075 -16.0459 86.845 -169.417 -24.4824 118.512 -18.2821 52.7083 7.15329 57.3283 -4.6804 -5.40742 84.0228 36.691 -10.7617 158.857 59.2239 82.9451 -69.6486 -9.73219 11.6924 86.5469 -19.549 -8.13843 171.176 -51.5199 -9.85557 -5.0403 7.71379 -90.2926 11.5069 -10.1648 0.45543 -0.124103 -10.1348 0.907048 -22.9676 -9.8269 -2.65122 -2.95499 -9.8269 -2.65122 89.4242 -40.1896 -103.955 45.9744 -19.1651 59.2626 -101.42 -8.78357 -86.3856 -80.6861 18.8024 -33.4403 -93.7263 -45.2685 72.3147 -13.1682 -4.25812 4.18887 -18.3978 -0.419551 -111.925 7.42857 8.16407 75.7933 2.12897 6.06736 4.1341 5.17135 5.42744 2.00194 
-241.519 81.2952 -229.884 86.575 -28.7816 85.0792 -177.297 -19.5675 102.99 -39.284 37.4555 9.03149 53.5761 -6.30136 -4.93722 11.626 -12.5104 21.8123 165.078 58.0431 89.2237 -72.2327 3.75155 8.32431 76.5424 -11.6617 -5.44286 53.2768 -7.12587 -22.6636 -3.67828 7.9549 -90.1137 11.0003 -7.37555 0.474308 -0.65011 -7.3475 0.800207 -23.3463 -7.17542 -1.77594 -3.33363 -7.1754 -1.77593 90.7822 -37.8243 -102.298 46.5742 -17.1581 53.0027 -100.067 -28.6382 -94.3244 -101.106 27.2328 -33.3614 -92.5614 -41.479 73.0061 -17.8267 5.8087 3.36934 -2.70575 -6.57762 -113.517 20.3123 3.59564 17.3073 1.83612 5.98054 2.45828 7.99124 5.81155 3.87362 
-236.867 83.9616 -224.97 83.066 -44.8772 81.8123 -177.608 -2.30358 90.2208 -64.1684 18.0684 4.46144 57.399 -4.02669 -0.422098 31.3179 6.69632 16.9093 170.619 54.3837 96.0341 -61.7956 6.5209 5.01173 66.6052 -3.48631 -2.16448 43.8706 -2.4105 -7.99314 -1.71754 7.80032 -89.9769 11.2803 -3.40734 0.385063 -0.386534 -3.38708 0.534825 -22.955 -3.3653 -0.657955 -2.94231 -3.3653 -0.657962 91.0836 -39.1772 -101.384 41.6976 -15.9666 45.6001 -66.2326 -20.5721 -81.5557 -65.5127 35.6995 -65.4164 -93.7776 -42.3032 71.3085 -21.6365 17.5524 7.50319 11.229 -12.4229 -104.676 22.3289 1.55173 3.1333 -0.324075 5.03643 2.5748 9.82091 5.07937 4.74282 
-230.218 85.5683 -217.05 82.5691 -50.8496 82.9497 -174.732 15.5741 91.6929 -78.5173 10.8774 2.90795 58.3545 -1.42514 1.58958 35.0421 12.2139 21.0802 169.106 44.1309 101.402 -59.6036 7.16937 4.4174 77.1448 -6.33074 -3.02408 29.3557 -0.395504 -3.32491 -0.864759 7.95937 -90.256 10.9547 -1.84007 -0.335899 -0.714879 -1.85309 -0.254554 -23.2594 -1.65405 -0.873565 -3.24671 -1.65403 -0.873549 90.9433 -38.9284 -101.698 37.9197 -17.32 34.6965 -35.0721 -9.76608 -75.3097 -35.2686 18.5654 -66.1759 -94.931 -44.2084 70.1082 -24.8633 18.8422 12.346 12.5791 -8.99959 -89.8154 22.3801 1.83182 4.38281 -1.11234 4.47049 5.28957 11.0916 4.05291 3.09461 
-222.303 84.4415 -206.965 83.0892 -54.2669 85.3612 -175.237 32.753 92.6115 -86.3489 9.31757 3.30995 60.6425 1.46584 4.56008 40.0139 17.4133 20.4237 169.345 36.7289 104.795 -65.7556 7.99367 2.88664 84.6382 -10.4464 -4.47524 34.6115 -0.592557 -2.88264 -0.302325 8.22996 -90.6346 10.4079 -0.893041 -1.18251 -1.26323 -0.94421 -1.14208 -23.795 -0.496398 -1.39621 -3.78239 -0.496393 -1.3962 89.5789 -38.4356 -104.23 32.4461 -17.6779 21.5707 -20.2252 -4.15756 -74.2873 -19.7401 4.05983 -31.1059 -96.684 -47.6957 68.5953 -26.6016 16.9306 17.7025 13.3153 -3.70552 -78.2985 24.5875 2.28603 5.52086 0.582761 4.10296 10.135 11.5793 2.44207 -0.886736 
-213.993 82.8399 -196.617 81.1721 -60.9001 85.206 -176.555 49.0617 96.0382 -84.8799 6.47729 3.01709 64.712 2.23823 2.04935 39.3489 19.5595 25.913 173.407 28.1925 105.935 -68.0182 8.318 0.563691 90.5977 -14.5726 -5.36905 43.3703 -1.32153 -4.15736 0.740729 8.38398 -90.5816 10.1146 1.21088 -1.26021 -1.55641 1.15425 -1.31227 -24.0942 1.53365 -0.838016 -4.08154 1.53364 -0.838022 87.739 -41.1708 -106.502 24.7385 -17.7939 7.10166 -17.1181 4.06765 -75.0306 -9.8864 -0.68565 0.00181934 -97.4867 -47.9156 67.4765 -29.8791 15.8194 26.2828 12.9779 1.31629 -69.2373 30.9339 2.95795 5.80692 5.92019 3.26408 7.23986 7.15836 1.86103 0.739284 
-204.422 81.6412 -185.262 75.923 -65.7694 77.2433 -177.196 60.1644 96.5626 -72.4778 2.79694 1.36852 64.0323 0.0660168 -0.159145 41.7325 21.8738 24.9249 175.729 18.4133 100.337 -67.6489 4.81609 -2.44188 91.8251 -15.7482 -5.63601 54.5181 -3.13413 -7.46897 1.45981 8.03325 -90.0689 10.8151 2.87487 -0.406939 -0.852747 2.85417 -0.533186 -23.413 2.86415 0.476619 -3.40034 2.86415 0.47661 89.6365 -36.9883 -104.581 26.8732 -18.8343 -2.04764 -20.3209 6.84476 -84.2322 -28.2087 -0.829376 -1.9072 -94.9284 -45.9079 70.6637 -41.6159 20.022 41.5653 13.2176 0.881937 -69.8837 34.1763 3.4821 6.39098 6.51547 2.49905 7.28831 4.38598 1.05019 0.468647 
-193.611 81.4062 -171.847 77.7317 -69.4907 76.1189 -177.792 60.2549 99.1902 -50.5809 5.08486 -1.59046 57.0305 -4.32818 -1.44436 30.5366 10.8792 30.9191 176.302 5.03265 86.6333 -63.6917 -6.0153 -6.36458 84.2252 -12.6512 -5.60463 63.7538 -4.9788 -9.58511 2.2339 7.89053 -89.5793 11.0916 4.64192 0.390546 -0.571142 4.65462 0.185413 -23.165 4.30958 1.77009 -3.15232 4.3096 1.7701 91.9955 -31.6885 -101.898 33.5748 -20.1933 -4.63446 -24.3241 6.85034 -94.7984 -32.5388 -1.74497 1.11533 -91.2022 -40.341 74.8947 -59.8423 20.9085 60.0523 15.6416 -4.27535 -75.9394 29.0103 2.83882 5.96086 5.81083 0.542558 5.55042 2.85975 -0.53229 -0.28257 
-181.46 82.6763 -156.42 81.3205 -69.4323 76.4933 -177.762 51.0272 97.1579 -18.2203 8.01523 -2.33323 41.7958 -11.9631 -6.98122 23.7808 1.95579 29.8259 169.799 -9.09536 78.6831 -51.1672 -19.3349 -10.0346 62.84 -0.899321 -0.848467 63.79 -1.40036 -1.65903 2.56183 7.70433 -88.9686 11.4366 5.57875 1.48945 -0.222893 5.63888 1.24176 -22.8288 4.87284 3.10042 -2.81619 4.87282 3.10041 93.4033 -26.0131 -100.856 41.8353 -24.7278 -3.47891 -27.1622 13.4549 -105.789 -32.5828 -1.74403 1.09763 -88.4238 -32.6298 77.5053 -75.3614 15.1993 72.5524 18.5704 -9.30996 -80.0734 28.3651 2.64361 5.55421 3.14981 -1.40513 2.31526 1.91232 -1.81569 -1.49218 
-169.39 84.3913 -141.291 86.5811 -68.3454 82.1039 -176.908 45.5049 95.8728 -7.25131 1.83191 -2.8391 36.8049 -13.9214 -9.67461 26.4201 3.87491 25.0675 165.735 -19.2293 73.6569 -41.4312 -20.812 -12.0338 46.1262 7.84561 6.38088 29.388 -0.159911 -1.26539 2.67003 7.36607 -88.7685 12.1073 5.88992 1.82061 0.448862 5.96433 1.55879 -22.1609 5.07011 3.50995 -2.14829 5.07014 3.50995 95.1349 -22.7849 -98.0733 47.1182 -33.9511 -1.92609 -27.2685 16.7066 -108.413 -34.1872 -2.08756 2.05559 -86.0124 -25.6688 80.2264 -81.0672 7.09556 76.1565 20.1764 -10.8775 -81.7256 31.3563 2.62565 4.56966 -1.38985 -2.47235 -4.50064 1.27362 -1.84252 0.778614 
-159.105 84.2217 -127.676 87.5364 -66.2267 88.5691 -174.642 45.9405 95.1798 -18.5801 14.5167 -3.3752 42.6809 -11.4608 -5.99297 26.7551 2.24687 17.1092 173.978 -15.4039 85.1036 -55.3507 4.07517 -9.22038 55.432 1.42133 1.08423 32.6538 -1.56078 -9.71365 2.50277 6.87252 -89.2492 13.1208 5.32873 0.835072 1.4607 5.36029 0.59906 -21.1477 4.83091 2.40144 -1.13502 4.83095 2.40144 95.8273 -25.0666 -95.9547 47.9512 -42.1265 0.00820663 -25.1088 13.7801 -101.788 -40.0156 -2.39031 1.73057 -84.8675 -25.95 82.6 -72.0175 1.16603 71.8752 13.9698 -9.08619 -84.529 32.4826 2.82455 4.89313 -4.74062 -2.2642 -6.34932 2.9221 -1.59085 0.428087 
-149.485 85.1449 -115.556 93.6977 -62.4704 91.6232 -172.005 45.4726 87.5231 -40.5523 20.8914 -5.84223 55.8262 -2.85763 3.29714 20.0863 -5.85344 4.74246 171.631 -0.824889 82.9723 -76.0909 17.1443 -5.6085 64.4619 -2.59263 -1.89116 36.4237 -1.70969 -8.5443 1.90027 7.30864 -89.0784 12.2364 4.2135 1.37083 0.5718 4.26978 1.18375 -22.0003 3.6066 2.57494 -1.98768 3.60661 2.57495 93.8471 -33.6134 -97.7977 40.5152 -33.9482 -0.364461 -21.781 5.21877 -87.8878 -34.9596 -1.53387 -0.225228 -86.6201 -36.8296 81.7791 -54.0689 0.503345 56.8473 7.12445 -6.72002 -88.2856 36.3455 3.8088 6.68434 -0.0323322 -2.31222 -1.57575 -0.270212 -2.13266 -3.75856 
-142.668 86.1123 -106.355 97.515 -56.6049 91.4452 -173.314 40.7838 80.0386 -51.0941 19.5627 -3.63801 60.0844 1.49927 7.12289 28.2242 0.509042 4.27482 169.891 20.6582 85.5961 -91.7985 14.6165 -2.7239 68.5694 -5.71372 -3.61861 41.9466 -2.61395 -10.0179 1.14525 7.7058 -88.8244 11.4342 2.82765 2.05547 -0.235114 2.91535 1.929 -22.7722 2.07941 2.81009 -2.75953 2.07942 2.81009 91.4622 -36.9587 -101.331 37.7169 -20.6845 0.991416 -10.0842 1.75492 -82.755 -35.8546 -0.17847 -4.58213 -89.7542 -44.223 78.2567 -37.8375 8.50782 28.1206 6.92697 -6.44684 -91.5737 38.754 4.23719 7.13239 -0.32614 -2.69295 -2.4568 -0.263494 -2.34084 -1.12435 
-135.87 88.6775 -97.5559 96.3391 -51.8764 95.1539 -175.749 35.3555 83.412 -55.5902 21.6387 -1.58295 63.2522 4.494 8.13855 36.2554 6.4774 2.66566 169.757 43.4462 95.8638 -89.909 6.15867 -0.75148 67.907 -4.42787 -3.00501 48.6882 -4.32409 -13.1056 0.849866 7.74907 -89.3367 11.3607 2.0004 1.12074 -0.309192 2.0478 1.03158 -22.8477 1.57117 1.67013 -2.83509 1.57117 1.67012 93.6067 -30.4814 -99.0791 35.7707 -11.7884 5.09261 -16.6049 4.03024 -97.1054 -35.0965 -1.05752 -1.66405 -93.2612 -44.8716 72.8925 -12.9219 5.35468 -10.2358 4.66647 -5.6873 -94.2995 40.5253 4.21301 6.54085 -2.25664 -2.67076 -4.08541 -0.6434 -2.19785 -2.67755 
